<?xml version="1.0" encoding="iso-8859-1"?>
<!-- Generator: Adobe Illustrator 19.0.0, SVG Export Plug-In . SVG Version: 6.00 Build 0)  -->
<svg version="1.1" id="Capa_1" xmlns="http://www.w3.org/2000/svg" xmlns:xlink="http://www.w3.org/1999/xlink" x="0px" y="0px"
	 viewBox="0 0 512 512" style="enable-background:new 0 0 512 512;" xml:space="preserve" fill="#4D3252">
<g>
	<g>
		<g>
			<path fill="#4D3252" d="M257.492,236.936L257.492,236.936C257.164,236.416,257.177,236.438,257.492,236.936z"/>
			<path fill="#4D3252" d="M405.673,332.024c-39.896,0-61.492,25.196-68.991,29.996c-1.787-2.822-74.46-117.613-79.19-125.084
				c-10.498-2.098-21.596-0.298-30.895,5.1c-10.5,5.999-17.999,15.897-20.997,27.595c-0.3,0.901-0.601,1.8-0.601,2.999
				c1.785,2.821,115.632,182.756,122.988,194.381c16.197,27.594,45.891,44.99,78.285,44.99c51.592,0,88.787-42.295,89.688-88.789
				C496.862,374.018,456.666,332.024,405.673,332.024z M405.972,467.006c-25.198,0-44.994-20.397-44.994-44.994
				c0-25.197,20.397-44.994,44.994-44.994c24.898,0,44.994,20.096,44.994,44.994C450.966,447.208,430.569,467.006,405.972,467.006z"
				/>
		</g>
	</g>
</g>
<g>
	<g>
		<path fill="#4D3252" d="M200.738,321.923l-25.35,40.038c-7.633-4.665-29.11-29.952-69.132-29.952c-50.798,0.002-91.148,41.984-90.216,91.341
			c0.873,46.376,38.229,88.607,89.865,88.607c32.164,0,62.101-17.225,78.11-44.965l54.262-85.754L200.738,321.923z M105.994,466.977
			c-24.581,0-44.842-19.902-44.895-44.965c-0.051-24.895,20.166-44.95,44.983-45.003c24.599-0.055,44.943,19.906,44.981,45.003
			C151.101,446.622,131.169,466.977,105.994,466.977z"/>
	</g>
</g>
<g>
	<g>
		<path fill="#4D3252" d="M422.036,4.258c-6.77-6.761-18.409-5.06-23.405,3.1L273.771,206.57l37.526,59.271l102.953-164.704
			C440.343,55.929,443.037,25.228,422.036,4.258z"/>
	</g>
</g>
<g>
	<g>
		<path fill="#4D3252" d="M113.511,7.267c-5.098-8.1-16.798-9.9-23.398-2.999c-20.996,20.997-18.298,51.592,7.799,96.886l87.533,140.531
			c6.335-10.252,15.11-19.316,26.257-25.692c8.226-4.774,17.554-7.292,27.108-8.599L113.511,7.267z"/>
	</g>
</g>
<g>
</g>
<g>
</g>
<g>
</g>
<g>
</g>
<g>
</g>
<g>
</g>
<g>
</g>
<g>
</g>
<g>
</g>
<g>
</g>
<g>
</g>
<g>
</g>
<g>
</g>
<g>
</g>
<g>
</g>
</svg>
